<svg xmlns="http://www.w3.org/2000/svg" enable-background="new 0 0 512 512" viewBox="0 0 512 512"><path d="M511.156,331.976l-4.271-16.191c1.45-27.635-22.024-50.083-49.261-50.32c-41.102-0.364-79.923-0.703-110.935-22.908
			c-31.626-23.113-64.575-50.63-87.43-82.464c-4.145-5.748-11.304-9.033-19.049-7.523l-12.23-15.5
			c-7.903-9.938-21.33-9.433-27.607,1.197c-5.509,9.446-10.615,23.616-8.316,41.428c-49.177,22.261-96.479,18.421-143.567-11.653
			c-12.277-7.809-28.576-2.642-33.886,10.741C-2.5,221.867-4.462,261.434,8.571,299.714c0.11,26.831,0.148,45.819,0.161,59.178
			c0.013,12.36,10.098,22.413,22.478,22.413h106.66c12.394,0,22.478-10.085,22.478-22.481v-7.138
			c27.326,5.16,55.208,12.011,82.984,20.393c33.91,10.176,83.623,11.036,118.989,9.22c47.274-2.301,94.737-10.132,133.658-22.044
			C507.585,355.696,514.251,343.716,511.156,331.976z M457.531,276.127c20.358,0.176,38.112,16.127,38.746,36.153
			c-0.014,0.005-0.028,0.009-0.041,0.014c-81.372,28.061-194.365,30.751-242.453,16.397c-9.245-2.796-18.502-5.367-27.761-7.834
			c-29.586-7.89-56.91-13.583-84.704-17.948c23.075-39.721,57.042-52.792,109.154-42.239c42.277,8.487,68.018-24.12,69.464-25.047
			c6.475,5.094,13.28,10.292,20.505,15.577C374.237,275.393,416.58,275.768,457.531,276.127z M209.567,143.667
			c2.537-4.301,6.945-3.887,10.053,0.021l10.784,13.669c-9.414,6.699-18.744,12.428-28.006,17.284
			C201.523,161.393,205.362,150.88,209.567,143.667z M24.515,182.72c2.928-7.386,11.821-9.764,18.243-5.685
			c64.015,40.891,128.188,36.773,196.165-12.599c3.866-2.796,9.04-1.773,11.68,1.885c16.583,23.095,39.069,44.648,60.943,62.612
			c-1.715,1.102-22.501,28.666-58.965,21.284c-58.158-11.772-97.211,4.42-122.579,50.97c-38.346-5.289-74.012-7.937-112.265-7.653
			C6.571,258.597,8.8,222.304,24.515,182.72z M492.856,349.063c-38.095,11.662-84.637,19.326-131.067,21.586
			c-34.008,1.759-82.795,0.992-115.383-8.778c-39.922-12.05-87.339-21.919-91.387-21.919c-2.972,0-5.331,2.413-5.331,5.331v13.542
			c0,6.518-5.3,11.818-11.816,11.818H31.211c-6.508,0-11.808-5.274-11.816-11.761c-0.013-12.568-0.047-30.101-0.142-54.461
			c39.293,2.177,97.378-1.725,204.025,26.737c29.048,7.731,35.226,11.392,63.688,14.535c0.557,0,108.825,11.901,210.813-22.631
			l3.069,11.631C502.477,340.879,498.965,347.189,492.856,349.063z"/></svg>